<?xml version="1.0" encoding="UTF-8"?>
<!DOCTYPE svg PUBLIC "-//W3C//DTD SVG 1.1//EN" "http://www.w3.org/Graphics/SVG/1.1/DTD/svg11.dtd">
<svg version="1.1" xmlns="http://www.w3.org/2000/svg" xmlns:xlink="http://www.w3.org/1999/xlink" x="0" y="0" viewBox="0, 0, 200, 100">
  <g id="Layer_1">
    <path d="M111.772,1.328 L136.252,75.056 L127.9,98.672 L95.5,1.328 L111.772,1.328 z M72.1,1.328 L63.748,24.944 L88.228,98.672 L104.5,98.672 L72.1,1.328 z M37.54,1.328 L29.332,25.52 L53.236,98.672 L69.796,98.672 L56.116,57.776 L62.596,38.768 L82.612,98.672 L86.068,98.672 L62.74,28.544 L54.388,52.448 L37.54,1.328 z M117.388,1.328 L113.932,1.328 L137.26,71.456 L145.612,47.552 L162.46,98.672 L170.668,74.48 L146.764,1.328 L130.204,1.328 L143.884,42.224 L137.404,61.232 L117.388,1.328 z M28.036,28.832 L4.852,98.672 L8.452,98.672 L28.036,39.776 L47.764,98.672 L51.22,98.672 L28.036,28.832 z M152.236,1.328 L148.78,1.328 L171.964,71.168 L195.148,1.328 L191.548,1.328 L171.964,60.224 L152.236,1.328 z" fill="#daa520"/>
  </g>
</svg>
